<?xml version="1.0" encoding="UTF-8" standalone="no"?>
<!-- Created with Inkscape (http://www.inkscape.org/) -->

<svg
   width="102.29096mm"
   height="101.04396mm"
   viewBox="0 0 102.29096 101.04397"
   version="1.1"
   id="svg1"
   xml:space="preserve"
   xmlns="http://www.w3.org/2000/svg"><defs
     id="defs1" /><g
     id="g106"
     transform="translate(-53.729703,-56.816669)"
     style="display:inline;opacity:1"><path
       style="display:inline;fill:none;stroke:#00283b;stroke-width:2.265;stroke-linejoin:round;stroke-opacity:1;paint-order:markers fill stroke"
       d="m 105.42343,109.86983 v 34.99358 c 0,0 -13.424806,-17.68767 -44.473649,-2.48137"
       id="path74" /><path
       style="display:inline;fill:none;stroke:#00283b;stroke-width:2.265;stroke-linejoin:round;stroke-opacity:1;paint-order:markers fill stroke"
       d="m 105.39146,144.91016 c 0,0 11.03904,-17.35267 43.86937,-2.78262"
       id="path75" /><path
       style="display:inline;fill:none;stroke:#00283b;stroke-width:2.265;stroke-linecap:round;stroke-linejoin:round;stroke-opacity:1;paint-order:markers fill stroke"
       d="m 65.403508,115.08705 c 0,0 3.945595,-2.26383 11.070695,-2.6086"
       id="path76" /><path
       style="display:inline;fill:none;stroke:#00283b;stroke-width:2.265;stroke-linecap:round;stroke-linejoin:round;stroke-opacity:1;paint-order:markers fill stroke"
       d="m 70.620733,114.06906 c 0.855904,6.11905 1.058012,9.16928 1.145245,14.6973"
       id="path77" /><path
       style="display:inline;fill:none;stroke:#00283b;stroke-width:2.265;stroke-linecap:round;stroke-linejoin:round;stroke-opacity:1;paint-order:markers fill stroke"
       d="m 78.382944,122.02215 c 0.0096,-3.01213 2.728999,-5.85399 6.107968,-5.4081 3.597399,0.65795 4.644921,3.12788 4.517353,5.21722 -0.127568,2.08934 0.12397,5.49284 -4.580977,5.78984 -5.578987,0.35219 -6.053949,-2.58683 -6.044344,-5.59896 z"
       id="path78" /><path
       style="display:inline;fill:none;stroke:#00283b;stroke-width:2.265;stroke-linecap:round;stroke-linejoin:round;stroke-opacity:1;paint-order:markers fill stroke"
       d="m 93.296531,121.74914 c 0.814367,-2.89997 4.385302,-5.42056 7.522139,-4.08773 3.29065,1.59557 3.83074,5.27362 3.14936,7.25285 -0.68139,1.97922 -1.73048,4.81712 -6.343628,3.84572 -5.470137,-1.15184 -5.142243,-4.11088 -4.327871,-7.01084 z"
       id="path79" /><path
       style="display:inline;fill:none;stroke:#00283b;stroke-width:2.22106;stroke-linecap:round;stroke-linejoin:round;stroke-opacity:1;paint-order:markers fill stroke"
       d="m 110.17648,124.86242 c -0.92737,-2.55019 -0.0246,-6.40984 3.26636,-6.98506 3.55756,-0.44091 5.26325,1.56301 5.75817,3.55592 0.49493,1.99291 1.87867,5.5571 -2.58183,6.76441 -4.36327,1.181 -5.51533,-0.7851 -6.4427,-3.33527 z"
       id="path80" /><path
       style="display:inline;fill:none;stroke:#00283b;stroke-width:3.265;stroke-linecap:round;stroke-linejoin:round;stroke-dasharray:none;stroke-opacity:1;paint-order:markers fill stroke"
       d="m 119.29362,111.65133 1.08161,16.54241"
       id="path81" /><path
       style="display:inline;fill:none;stroke:#00283b;stroke-width:3.265;stroke-linecap:round;stroke-linejoin:round;stroke-dasharray:none;stroke-opacity:1;paint-order:markers fill stroke"
       d="m 126.92858,111.5877 c 0,0 -0.50901,16.28791 0.50899,17.30591"
       id="path82" /><path
       style="display:inline;fill:none;stroke:#00283b;stroke-width:2.865;stroke-linecap:butt;stroke-linejoin:round;stroke-dasharray:none;stroke-opacity:1;paint-order:markers fill stroke"
       d="m 142.77112,127.68474 c 0,0 -4.70822,3.81748 -9.2892,-0.63624 -3.66353,-4.17792 1.28383,-8.81934 5.20026,-8.00512 1.54055,0.32027 3.06277,1.78214 3.89807,5.20563 l -9.28921,-1.20886"
       id="path83" /><path
       style="display:inline;fill:#fd2228;fill-opacity:1;stroke:#fd2228;stroke-width:3.68248;stroke-linecap:butt;stroke-linejoin:round;stroke-dasharray:none;stroke-opacity:1;paint-order:markers fill stroke"
       d="m 196.39485,407.73516 c -4.90096,-1.05094 -8.71628,-2.84097 -17.62803,-8.27054 -8.48367,-5.16875 -12.88238,-7.569 -17.50747,-9.55327 -9.5681,-4.10497 -17.08273,-5.54085 -29.13918,-5.56788 -16.45708,-0.0369 -29.08948,2.53219 -60.193743,12.24177 -23.335366,7.28442 -26.653152,8.07827 -33.667689,8.0557 -4.041432,-0.013 -4.926884,-0.12452 -7.396346,-0.93154 -1.542913,-0.50423 -3.76192,-1.56797 -4.931126,-2.36388 -5.229042,-3.55955 -8.757344,-11.16161 -8.757344,-18.86853 0,-1.47931 0.761591,-17.36314 1.692425,-35.2974 2.129483,-41.02851 4.891254,-96.10144 5.786209,-115.38376 0.376796,-8.11826 0.853672,-15.38656 1.059721,-16.15177 0.770957,-2.86312 2.112677,-4.70845 4.337349,-5.78038 1.207486,-0.58182 2.67509,-0.9358 4.452731,-1.10101 l 2.469697,-0.22953 -0.223107,3.87813 c -0.260169,4.52236 -7.270504,170.64277 -7.40479,175.46761 -0.09866,3.54491 0.23712,4.50453 1.974536,5.64293 1.536902,1.00702 3.353624,0.6855 8.470394,-1.49905 21.654616,-9.24521 43.835305,-15.45547 64.104643,-17.94835 7.14453,-0.87869 22.28904,-1.05757 29.24668,-0.34545 15.34112,1.57018 27.79785,5.12263 43.50655,12.40732 2.86348,1.3279 5.60877,2.69879 6.10065,3.04642 1.60602,1.13502 7.11591,3.7584 9.75316,4.6437 5.07581,1.70389 8.77102,2.2864 13.07618,2.06131 2.15099,-0.11246 5.21169,-0.51785 6.80155,-0.90086 3.52077,-0.84819 8.91739,-3.39215 11.90272,-5.61095 2.33788,-1.73757 9.7913,-5.33445 15.47354,-7.46723 11.8246,-4.43826 22.65906,-6.50199 36.04823,-6.86641 23.68314,-0.6446 50.81447,5.01486 84.60122,17.64739 9.75078,3.64571 10.3922,3.76693 12.24039,2.31315 1.73861,-1.36759 1.7398,-1.38798 1.13052,-19.47362 -0.71699,-21.28213 -1.28655,-36.38298 -2.7546,-73.03009 -0.64808,-16.1792 -1.7078,-42.65424 -2.3549,-58.83344 -0.6471,-16.17919 -1.25234,-30.77611 -1.34501,-32.43758 l -0.16844,-3.02087 3.22135,0.23646 c 6.23033,0.45734 8.64223,1.80891 8.644,4.8439 0.001,1.92653 0.18673,6.23192 3.73599,86.66094 3.6375,82.42865 3.51864,79.40603 3.29668,83.82915 -0.54634,10.88768 -3.86713,17.16471 -10.27161,19.4157 -7.43433,2.61295 -17.03374,1.21335 -42.16239,-6.1473 -12.19095,-3.57096 -20.8785,-5.78513 -28.56652,-7.28068 -23.21589,-4.51618 -36.95086,-5.54825 -48.19861,-3.62175 -7.49476,1.2837 -14.26502,4.11921 -23.72782,9.93766 -10.37086,6.3768 -14.63993,8.50534 -20.94842,10.4448 -5.83395,1.79357 -11.15349,2.20116 -15.77997,1.20908 z"
       id="path84"
       transform="matrix(0.26458333,0,0,0.26458333,51.533329,47.517647)" /><path
       style="display:inline;fill:#fefae9;fill-opacity:1;stroke:#fefae9;stroke-width:3.68248;stroke-linecap:butt;stroke-linejoin:round;stroke-dasharray:none;stroke-opacity:1;paint-order:markers fill stroke"
       d="m 207.9575,296.12292 v -60.4811 l 1.39391,-1.34431 c 1.79412,-1.73026 4.91113,-5.54387 6.65793,-8.14586 6.68056,-9.95117 10.59559,-21.49554 12.4807,-36.80218 l 0.73761,-5.98918 8.27363,-6.37212 c 5.44403,-4.19284 8.63986,-6.43359 9.34448,-6.55185 0.58897,-0.0988 5.68621,-0.37259 11.32718,-0.60831 31.1803,-1.30292 61.72326,3.12972 82.27398,11.94025 7.65469,3.28173 16.67568,8.59468 16.95765,9.98727 0.45879,2.2659 0.89345,9.21911 1.02345,16.372 0.0816,4.48903 0.84258,24.9192 1.69111,45.40037 0.84854,20.48118 1.99745,49.0222 2.55314,63.42449 0.55569,14.40229 1.10133,27.82146 1.21253,29.82037 l 0.20217,3.6344 -3.84279,-1.55094 c -52.75745,-21.29278 -98.66668,-23.38078 -132.58682,-6.03021 -4.86975,2.49094 -12.88522,7.85477 -16.72419,11.19157 l -2.97567,2.58644 z m 124.07879,17.92488 c 3.28834,-0.41233 7.52462,-1.68068 10.42192,-3.12037 2.2697,-1.12782 5.94378,-3.3986 5.94839,-3.67643 0.002,-0.0986 -1.23636,-1.70544 -2.7511,-3.57082 -1.51475,-1.86538 -3.04278,-3.75362 -3.39564,-4.1961 l -0.64156,-0.8045 -3.49093,1.75171 c -7.57963,3.80334 -14.10431,3.57776 -20.51394,-0.70927 -2.92132,-1.9539 -4.90967,-4.09367 -6.06732,-6.5294 -0.45618,-0.95981 -0.76356,-1.81098 -0.76356,-1.81098 0,0 7.62766,0.91819 16.86984,2.12093 13.19675,1.71736 17.06712,2.11593 18.02983,1.8567 2.58487,-0.69603 4.42216,-3.71449 3.91532,-6.43242 -0.46595,-2.49866 -2.34111,-7.78125 -3.8457,-10.83389 -3.55871,-7.22023 -8.88794,-11.83839 -15.19634,-13.16874 -12.80565,-2.70052 -27.32798,6.21647 -30.58317,18.77864 -0.68521,2.64432 -0.68704,7.73486 -0.004,10.37185 1.16684,4.50295 3.97949,9.00508 7.55676,12.09586 7.31822,6.32298 15.62242,8.99175 24.51093,7.87723 z m -41.31701,-1.45741 c 2.39426,-1.8262 3.04862,-4.36817 1.9449,-7.55531 -1.37133,-3.95991 -1.51794,-7.41914 -1.56318,-36.88384 -0.0464,-30.21461 0.0191,-29.07202 -1.75755,-30.67984 -0.96087,-0.86957 -2.99061,-1.62754 -4.35836,-1.62754 -1.36804,0 -3.39714,0.75787 -4.35973,1.62834 -0.35408,0.32019 -0.94382,1.17007 -1.31055,1.88863 -0.62197,1.21865 -0.68899,2.46427 -0.99721,18.53423 -0.3326,17.34071 -0.0148,36.5692 0.71906,43.5092 0.71876,6.79706 2.14083,10.29793 4.75816,11.71376 1.8289,0.98933 5.28042,0.72633 6.92446,-0.52763 z m -27.51701,-2.1138 c 1.7405,-0.82592 2.99239,-2.81551 3.16015,-5.02229 0.18933,-2.49061 -3.92947,-64.29794 -4.36087,-65.43987 -0.86393,-2.28683 -3.25087,-3.83049 -5.92306,-3.83049 -2.00886,0 -3.54757,0.6603 -4.68289,2.00955 -1.7169,2.04041 -1.75908,2.68197 -0.96646,14.69959 0.39928,6.05396 0.72423,11.26881 0.7221,11.58857 -0.003,0.49167 -0.3581,0.40205 -2.2994,-0.58076 -3.18995,-1.61494 -5.76313,-2.23581 -10.11732,-2.44116 -7.80758,-0.36822 -13.73392,2.18614 -17.88782,7.70997 -3.16994,4.21536 -4.72904,9.35715 -4.72496,15.58256 0.003,4.36871 0.75815,7.84273 2.66836,12.27351 3.5922,8.33218 8.30552,12.40647 15.45972,13.3637 4.9665,0.66451 12.31217,-0.54259 17.30421,-2.84357 1.27744,-0.58881 2.35893,-1.00875 2.40331,-0.93321 0.0444,0.0756 0.37454,0.71486 0.73369,1.4207 1.46594,2.88089 5.28103,3.97603 8.51124,2.4432 z"
       id="path85"
       transform="matrix(0.26458333,0,0,0.26458333,51.533329,47.517647)" /><path
       style="display:inline;fill:#fefae9;fill-opacity:1;stroke:#fefae9;stroke-width:2.60409;stroke-linecap:butt;stroke-linejoin:round;stroke-dasharray:none;stroke-opacity:1;paint-order:markers fill stroke"
       d="m 188.16873,348.75624 c -22.04574,-14.25544 -49.40728,-20.14539 -79.61935,-17.13918 -20.38898,2.02877 -43.647838,8.64287 -65.866131,18.73027 l -2.885261,1.30995 9.8e-5,-1.36677 c 8.6e-5,-1.20851 5.66209,-135.62679 6.241444,-148.17444 0.125188,-2.71132 0.299894,-6.73628 0.388237,-8.94436 l 0.160623,-4.0147 3.277876,-1.44472 c 5.191744,-2.28827 16.291841,-6.51664 19.148976,-7.29445 0.264518,-0.072 2.320547,-0.69131 4.568953,-1.37622 18.559637,-5.65368 38.079515,-8.49484 55.669085,-8.10278 8.36061,0.18636 18.03535,1.09618 18.03535,1.69606 0,0.57528 -1.48999,6.01566 -2.5525,9.31992 -2.23624,6.9544 -5.27911,13.64589 -8.26437,18.17395 -2.82489,4.2848 -6.69997,7.77899 -10.01053,9.02658 -2.08468,0.78561 -5.88749,0.71505 -8.8708,-0.16458 -7.06146,-2.08209 -14.58445,-8.10566 -19.827692,-15.8758 -0.665341,-0.98599 -1.577292,-2.07308 -2.026559,-2.41575 -1.75146,-1.33591 -4.635158,-0.91768 -5.982554,0.86765 -1.182575,1.56694 -2.951323,8.03736 -3.559359,13.0208 -0.429984,3.52415 -0.166589,11.18216 0.489821,14.24115 4.337516,20.21362 22.152243,32.30797 52.789223,35.83843 3.59171,0.41389 11.4885,0.35376 19.35794,-0.14741 15.35154,-0.97767 28.64336,-4.69309 38.56198,-10.77913 0.90731,-0.55672 1.69273,-0.96914 1.74539,-0.91649 0.0526,0.0527 0.0678,6.34353 0.0336,13.97972 l -0.0621,13.88398 -1.13145,-1.54101 c -1.37259,-1.86946 -4.19292,-4.58656 -6.11226,-5.88854 -8.36005,-5.67101 -18.97307,-5.10923 -27.85231,1.47433 -6.55652,4.86136 -10.06122,10.99624 -11.82918,20.70665 -0.57144,3.13854 -0.51481,7.8848 0.12276,10.28897 2.04292,7.70356 8.82538,12.92458 20.01799,15.4095 11.9798,2.65968 20.2643,0.15457 25.68274,-7.76607 l 1.22194,-1.78623 v 27.69701 c 0,15.23335 -0.0601,27.69487 -0.0601,27.69487 0,0 -5.05076,-4.37321 -11.00152,-8.22116 z M 77.986584,311.20573 c 1.1232,-0.40694 2.322084,-1.66317 2.65834,-2.78549 0.514976,-1.71884 -0.30782,-23.06374 -1.29836,-33.68186 -0.41293,-4.42642 -1.580521,-14.53063 -2.246386,-19.43999 -0.305947,-2.25572 -0.357018,-3.23405 -0.172023,-3.29535 1.432857,-0.47475 10.842208,-1.67713 14.931854,-1.90807 3.433943,-0.19391 4.49743,-0.47903 5.460435,-1.46395 1.79482,-1.83564 1.798631,-4.38026 0.0093,-6.21029 -1.221264,-1.24904 -2.135047,-1.40712 -6.369409,-1.10183 -12.595414,0.90809 -24.575856,3.47352 -34.449598,7.37686 -5.935981,2.34664 -7.559639,3.37047 -8.216392,5.18103 -0.856802,2.36205 0.514055,5.03659 2.927968,5.71244 1.370375,0.38368 2.117408,0.2253 4.664043,-0.98888 4.519884,-2.15498 11.993392,-4.74655 12.173796,-4.22148 0.174111,0.50675 1.768117,13.64434 2.266018,18.67621 0.932805,9.4271 1.694961,23.62257 1.694961,31.56932 0,1.58537 0.125998,3.30304 0.279995,3.81704 0.500659,1.67105 2.387226,3.05244 4.168723,3.05244 0.396778,0 1.079307,-0.12966 1.516735,-0.28815 z m 48.741756,-4.27031 c 7.13903,-0.87485 12.25588,-3.67576 15.42571,-8.44387 2.30824,-3.4721 3.28557,-7.32693 3.72576,-14.69542 0.21525,-3.60319 0.21618,-5.27755 0.004,-7.0052 -1.24042,-10.09351 -7.97379,-17.09103 -18.86834,-19.60854 -2.04434,-0.4724 -2.7747,-0.523 -5.99662,-0.41545 -4.14765,0.13845 -5.93206,0.54323 -9.25429,2.09928 -5.57072,2.60919 -10.32432,7.54598 -12.665775,13.15388 -1.684179,4.03371 -2.211814,7.41476 -1.962811,12.5776 0.09249,1.91775 0.325796,4.40663 0.518449,5.53084 1.431261,8.35189 6.081827,13.72811 13.815177,15.97087 3.51681,1.01991 10.59407,1.40766 15.25888,0.83601 z"
       id="path86"
       transform="matrix(0.26458333,0,0,0.26458333,51.533329,47.517647)" /><path
       style="display:inline;fill:#d9d1b0;fill-opacity:1;stroke:#d9d1b0;stroke-width:2.60391;stroke-linecap:butt;stroke-linejoin:round;stroke-dasharray:none;stroke-opacity:1;paint-order:markers fill stroke"
       d="m 201.83492,387.03287 c -3.20365,-0.54061 -6.33913,-1.79655 -16.19113,-6.48547 -14.63507,-6.96534 -22.42192,-9.91893 -32.94456,-12.49602 -10.76992,-2.63766 -19.94469,-3.6941 -31.98267,-3.68268 -12.48531,0.0118 -23.399148,1.21967 -36.671866,4.05847 -13.121099,2.80637 -42.924114,13.40789 -42.924114,13.40789 l -2.705033,1.01362 c 0,0 0.627996,-17.3672 0.80082,-19.53279 l 0.137218,-1.71944 4.731037,-2.16792 c 23.633083,-10.82947 45.090843,-17.02262 66.411908,-19.16784 5.25595,-0.52883 16.25389,-0.72112 21.40194,-0.37419 17.22905,1.16107 32.81048,5.60445 46.44759,13.24554 3.3325,1.86725 9.34023,5.92334 12.34762,8.33643 2.41961,1.94147 6.72968,6.05405 9.5648,9.12654 1.41486,1.53333 2.77558,2.01481 4.43771,1.57025 1.37068,-0.3666 1.91399,-0.78844 3.12759,-2.42836 5.0457,-6.81816 14.38382,-14.30168 23.83297,-19.09961 32.32656,-16.41426 76.24917,-13.81309 127.92678,7.57605 2.6017,1.07684 4.77381,1.98858 4.77381,1.98858 l 0.7666,24.54359 c 0,0 -2.15482,-0.65424 -4.66414,-1.5782 -49.05959,-18.0645 -88.02354,-21.71043 -119.36765,-11.16945 -6.72774,2.26253 -9.55711,3.48133 -20.70027,8.91704 -8.99499,4.38782 -12.24276,5.68728 -15.26485,6.10762 -1.01387,0.14101 -1.91674,0.24366 -2.00636,0.22811 -0.0896,-0.0156 -0.66821,-0.11355 -1.28575,-0.21776 z"
       id="path87"
       transform="matrix(0.26458333,0,0,0.26458333,51.533329,47.517647)" /><path
       style="display:inline;fill:#17b1b8;fill-opacity:1;stroke:#17b1b8;stroke-width:3.68248;stroke-linecap:butt;stroke-linejoin:round;stroke-dasharray:none;stroke-opacity:1;paint-order:markers fill stroke"
       d="m 115.61993,297.94237 c -4.3025,-0.98725 -6.31368,-2.26678 -7.77069,-4.94378 -1.65224,-3.03572 -2.46034,-10.67606 -1.54796,-14.63556 1.6319,-7.08206 8.61518,-12.93241 15.4368,-12.93241 3.83223,0 8.91318,2.02427 11.57543,4.61168 0.90638,0.88089 2.0294,2.49444 2.65442,3.81383 1.08224,2.28455 1.08332,2.29244 1.03326,7.55814 -0.10009,10.52887 -1.8744,14.11954 -7.91276,16.01305 -2.93185,0.91937 -10.453,1.20699 -13.4685,0.51505 z"
       id="path88"
       transform="matrix(0.26458333,0,0,0.26458333,51.533329,47.517647)" /><path
       style="display:inline;fill:#fde44b;fill-opacity:1;stroke:#fde44b;stroke-width:3.68248;stroke-linecap:butt;stroke-linejoin:round;stroke-dasharray:none;stroke-opacity:1;paint-order:markers fill stroke"
       d="m 178.03066,303.11 c -3.35516,-0.34539 -8.07911,-1.69448 -11.11089,-3.1731 -2.81606,-1.37341 -5.20389,-3.77385 -5.82879,-5.85956 -1.03535,-3.45568 0.18094,-11.30439 2.40497,-15.51924 2.59148,-4.91124 8.43946,-9.20988 13.77211,-10.12338 4.52192,-0.77463 7.98052,0.48184 11.8465,4.30372 5.19817,5.13884 6.87741,12.63021 4.38413,19.55832 -3.22127,8.95097 -7.11522,11.67312 -15.46803,10.81324 z"
       id="path89"
       transform="matrix(0.26458333,0,0,0.26458333,51.533329,47.517647)" /><path
       style="fill:#ffb889;fill-opacity:1;stroke:#ffb889;stroke-width:2.60391;stroke-linecap:butt;stroke-linejoin:round;stroke-dasharray:none;stroke-opacity:1;paint-order:markers fill stroke"
       d="m 234.15408,301.5388 c -1.78937,-0.48174 -2.61347,-0.95784 -3.87927,-2.2411 -1.41755,-1.43712 -2.66659,-3.59728 -3.89511,-6.7364 -1.40944,-3.60145 -1.72711,-5.35492 -1.59522,-8.80525 0.0879,-2.29839 0.24258,-3.27717 0.76023,-4.80943 2.08031,-6.15779 5.78058,-8.88329 12.04086,-8.8689 4.48965,0.0103 7.73783,1.20427 10.3186,3.79289 3.07606,3.08541 4.50083,7.54337 4.97226,15.55769 0.16017,2.72296 0.22154,5.22847 0.13637,5.56781 -0.27463,1.09421 -1.94841,2.91373 -3.54655,3.85535 -3.98423,2.34749 -11.60597,3.68514 -15.31217,2.68734 z"
       id="path90"
       transform="matrix(0.26458333,0,0,0.26458333,51.533329,47.517647)" /><path
       style="fill:#9ae446;fill-opacity:1;stroke:#9ae446;stroke-width:2.60391;stroke-linecap:butt;stroke-linejoin:round;stroke-dasharray:none;stroke-opacity:1;paint-order:markers fill stroke"
       d="m 325.05867,281.96665 c -5.71928,-0.75538 -10.44816,-1.4229 -10.50862,-1.48336 -0.25597,-0.25597 2.55633,-2.2423 4.55527,-3.21739 2.15774,-1.05256 5.00714,-1.80967 6.78317,-1.80235 1.40569,0.006 3.51467,0.57663 4.70278,1.27291 0.59112,0.34642 1.60318,1.21321 2.24902,1.92619 1.54297,1.7034 3.38961,4.781 2.82315,4.70506 -0.11334,-0.0152 -4.88549,-0.64567 -10.60477,-1.40106 z"
       id="path91"
       transform="matrix(0.26458333,0,0,0.26458333,51.533329,47.517647)" /><path
       style="fill:#ffc819;fill-opacity:1;stroke:#ffc819;stroke-width:5.20781;stroke-linecap:butt;stroke-linejoin:round;stroke-dasharray:none;stroke-opacity:1;paint-order:markers fill stroke"
       d="m 135.95147,245.251 c -19.68431,-3.1898 -32.63621,-10.41712 -37.863343,-21.1282 -2.355254,-4.82622 -3.101993,-8.27844 -3.101993,-14.34072 v -5.23759 l 2.76542,2.53562 c 8.980806,8.23449 17.185866,11.82197 26.099446,11.41139 4.75831,-0.21918 8.61492,-1.75915 12.86149,-5.13565 8.18441,-6.50755 15.61444,-21.81883 19.82126,-40.84631 1.84767,-8.35699 5.29813,-13.27633 11.44188,-16.31273 l 3.67094,-1.81428 h 6.51767 c 7.56719,0 10.70353,0.67574 16.64284,3.58582 8.10085,3.96916 18.01618,12.32661 23.03772,19.41809 l 2.32634,3.28527 -0.29672,4.40981 c -0.8746,12.99874 -5.02426,26.26104 -11.19464,35.77804 -2.85517,4.40373 -11.36169,12.49788 -15.98603,15.21109 -7.3912,4.33657 -15.68761,7.10736 -26.12129,8.72385 -7.27197,1.12665 -24.86684,1.38895 -30.62099,0.4565 z"
       id="path92"
       transform="matrix(0.26458333,0,0,0.26458333,51.533329,47.517647)" /><path
       style="fill:#ff9b14;fill-opacity:1;stroke:#ff9b14;stroke-width:2.60391;stroke-linecap:butt;stroke-linejoin:round;stroke-dasharray:none;stroke-opacity:1;paint-order:markers fill stroke"
       d="m 225.08107,172.01154 c -2.96122,-4.20676 -8.06912,-9.52239 -12.87952,-13.40329 -3.90792,-3.15281 -9.50437,-6.92479 -11.8289,-7.97261 -0.36371,-0.16395 -0.6613,-0.40786 -0.6613,-0.54204 0,-0.44508 8.78074,-14.17084 9.1517,-14.30564 0.38137,-0.13858 6.48703,3.32045 10.33536,5.85528 9.30044,6.12603 16.03781,13.04341 19.72357,20.25052 l 0.95221,1.86195 -0.54313,0.43809 c -1.89903,1.53174 -12.70349,9.54476 -12.85832,9.53624 -0.10412,-0.006 -0.73038,-0.77905 -1.39167,-1.7185 z"
       id="path93"
       transform="matrix(0.26458333,0,0,0.26458333,51.533329,47.517647)" /><path
       style="fill:#9d600d;fill-opacity:1;stroke:#9d600d;stroke-width:0.805039;stroke-linejoin:round;stroke-dasharray:none;stroke-opacity:1;paint-order:markers fill stroke"
       d="m 217.47262,137.92528 c -1.01032,-1.46145 -2.67314,-3.59247 -4.01103,-5.14042 -0.72865,-0.84306 -0.73826,-0.85797 -0.58932,-0.91459 1.98174,-0.75346 4.68546,-2.39965 6.92022,-4.21346 2.41045,-1.95641 5.33633,-4.96133 7.18229,-7.3763 0.28105,-0.36769 0.52581,-0.67023 0.54391,-0.67233 0.0523,-0.006 1.27278,1.66064 1.8986,2.59278 0.84039,1.25175 1.63023,2.60127 2.47204,4.22375 0.60305,1.16229 0.73124,1.45197 0.66508,1.50295 -0.0451,0.0347 -0.54266,0.43375 -1.10574,0.88671 -0.76043,0.61171 -13.47636,9.667 -13.57493,9.667 -0.009,0 -0.18968,-0.25024 -0.40112,-0.55609 z"
       id="path94"
       transform="matrix(0.26458333,0,0,0.26458333,53.729703,56.824671)" /><path
       style="fill:#ff8d8d;fill-opacity:1;stroke:none;stroke-width:0.1;stroke-linecap:butt;stroke-linejoin:round;stroke-dasharray:none;stroke-opacity:1;paint-order:markers fill stroke"
       d="m 57.842281,106.37239 c -0.0017,-0.0374 0.06489,-0.91307 0.08769,-1.1532 0.02788,-0.29361 0.0488,-0.40091 0.120945,-0.62034 0.364798,-1.10946 1.088949,-1.70992 2.30052,-1.90758 0.270139,-0.0441 1.045564,-0.11705 1.135258,-0.10685 0.153161,0.0174 0.315374,0.13999 0.379413,0.28666 0.03014,0.069 0.03856,0.14484 0.03411,0.30715 l -0.0027,0.0984 -0.252687,0.0805 c -0.293031,0.33117 -1.630509,0.35529 -2.150793,1.45273 -0.72715,1.53378 -0.694287,4.25905 -1.0243,6.44204 -0.960494,6.35352 -1.124289,25.5247 -2.019227,26.0961 -2.07131,1.32248 1.392159,-30.96684 1.391769,-30.97559 z"
       id="path95" /><path
       style="fill:#a37f0f;fill-opacity:1;stroke:#a37f0f;stroke-width:0.80126;stroke-linejoin:round;stroke-dasharray:none;stroke-opacity:1;paint-order:markers fill stroke"
       d="m 133.34129,210.8794 c -1.50579,-0.1649 -5.45707,-0.71551 -7.27425,-1.01366 -18.62056,-3.05509 -31.130977,-10.14014 -36.400728,-20.61489 -0.621894,-1.23614 -3.899123,-11.97094 -3.899123,-11.97094 20.141671,54.94621 122.114391,13.28535 118.479851,-41.65414 l 0.59986,0.6613 c 2.59432,2.86004 4.37981,5.09029 5.99324,7.48624 1.37267,2.03842 1.28217,1.60194 1.01622,4.90077 -1.22669,15.21581 -4.94705,27.38765 -11.28152,36.90959 -3.64329,5.47656 -8.3319,10.23859 -13.58548,13.79821 -10.30523,6.9824 -22.86434,10.53957 -40.00136,11.32975 -2.80875,0.12951 -12.86699,0.25317 -13.64675,0.16777 z"
       id="path96"
       transform="matrix(0.26458333,0,0,0.26458333,53.729703,56.824671)" /><path
       style="fill:#ffb755;fill-opacity:1;stroke:#ffb755;stroke-width:0.805039;stroke-linejoin:round;stroke-dasharray:none;stroke-opacity:1;paint-order:markers fill stroke"
       d="m 197.60723,118.90603 c -1.61463,-1.09437 -3.63063,-2.31981 -5.47072,-3.32541 -0.5621,-0.30718 -1.02861,-0.56439 -1.0367,-0.57156 -0.0514,-0.0456 8.35954,-13.25645 9.25151,-14.5311 l 0.0989,-0.14134 1.19362,0.59235 c 3.28715,1.63129 8.84562,3.7017 8.84562,3.7017 -4.16383,4.18725 -6.92768,7.1821 -11.43088,13.97044 -0.32218,0.48567 -0.59116,0.88131 -0.59775,0.8792 -0.007,-0.002 -0.3907,-0.26053 -0.85361,-0.57428 z"
       id="path97"
       transform="matrix(0.26458333,0,0,0.26458333,53.729703,56.824671)" /><path
       style="fill:#01a6ca;fill-opacity:1;stroke:#01a6ca;stroke-width:2.60391;stroke-linecap:butt;stroke-linejoin:round;stroke-dasharray:none;stroke-opacity:1;paint-order:markers fill stroke"
       d="m 245.51831,155.52477 c -5.6849,-9.59038 -15.2561,-18.2125 -28.16169,-25.36919 l -3.63645,-2.01655 3.36698,-4.91359 c 15.97976,-23.320005 29.73582,-40.38391 43.62599,-54.116515 10.53835,-10.418796 19.3475,-17.142751 27.85233,-21.259446 8.90173,-4.308809 16.41754,-5.099938 22.24359,-2.341401 1.56882,0.742808 2.25899,1.310918 5.30317,4.365239 3.87549,3.888396 4.79687,5.29004 5.79292,8.8125 0.69344,2.45229 0.74214,6.867983 0.11127,10.088954 -3.52408,17.992384 -24.15588,44.383159 -58.81845,75.236479 -5.36988,4.77976 -15.96998,13.85811 -16.18106,13.85811 -0.0598,0 -0.73421,-1.05507 -1.4986,-2.34459 z"
       id="path98"
       transform="matrix(0.26458333,0,0,0.26458333,51.533329,47.517647)" /><path
       style="fill:#016c84;fill-opacity:1;stroke:#016c84;stroke-width:0.377953;stroke-linejoin:round;stroke-dasharray:none;stroke-opacity:1;paint-order:markers fill stroke"
       d="m 237.64783,121.22242 c -0.94139,-1.7004 -2.7092,-4.37666 -3.88243,-5.87754 l -0.90304,-1.15523 0.34554,-0.25547 c 0.52656,-0.38931 3.62565,-2.93695 4.97885,-4.09293 18.47476,-15.782138 34.7154,-35.100946 48.87123,-58.134021 7.01548,-11.414949 13.48048,-23.949123 18.34626,-35.569303 l 1.41209,-3.347537 0.41545,0.702354 c 3.47872,4.172796 4.1945,10.916663 2.07043,19.507002 -2.91738,11.798718 -11.02182,26.219015 -23.55242,41.907042 -11.64742,14.582302 -26.95769,30.074113 -45.65595,46.197293 l -1.69998,1.46586 z"
       id="path99"
       transform="matrix(0.26458333,0,0,0.26458333,53.729703,56.824671)" /><path
       style="fill:#67b6ca;fill-opacity:1;stroke:#67b6ca;stroke-width:0.755906;stroke-linejoin:round;stroke-dasharray:none;stroke-opacity:1;paint-order:markers fill stroke"
       d="m 211.3164,96.342448 c -0.89147,-0.529981 -2.59581,-1.481272 -3.78742,-2.11398 -1.1916,-0.632707 -2.18249,-1.160834 -2.20197,-1.173614 -0.0404,-0.02653 3.0724,-4.624975 5.4888,-8.108394 22.9751,-33.120201 43.59213,-55.911139 61.09703,-67.539254 12.1412,-8.06513 22.20043,-10.5892399 30.07738,-7.5471598 1.64468,0.6351768 4.75266,2.4046468 4.75266,2.4046468 0,0 -10.20837,4.645288 -32.54556,20.543539 -22.88842,16.290579 -41.95718,35.459291 -55.63402,55.92565 -3.59489,5.379469 -5.61517,8.746267 -5.61517,8.746267 0,0 -0.74025,-0.60772 -1.63173,-1.137701 z"
       id="path100"
       transform="matrix(0.26458333,0,0,0.26458333,53.729703,56.824671)" /><path
       style="fill:#ffda63;stroke:#ffda63;stroke-width:1.55717;stroke-linejoin:round;stroke-dasharray:none;paint-order:markers fill stroke"
       d="m 109.13342,192.78244 c -10.263188,-1.75283 -20.070806,-7.26706 -22.886593,-17.73378 -1.045346,-4.01018 -0.219571,-0.509 0.395697,-5.22757 l 0.13479,-1.03372 1.038402,1.08862 c 8.009146,8.39647 16.246764,12.7829 25.200204,13.41878 2.10815,0.14973 3.78526,0.0254 5.8322,-0.43228 1.74764,-0.39078 2.71073,-0.73368 4.51362,-1.607 7.48643,-3.62647 13.88215,-12.02687 18.99529,-24.94919 2.37268,-5.99643 4.51081,-13.26431 5.96018,-20.2597 0.96737,-4.66897 2.96801,-8.5272 6.03908,-11.64632 3.53361,-3.58889 7.75152,-5.39451 13.50336,-5.78059 4.17838,-0.28046 9.75997,0.53707 14.83689,2.17315 1.70233,0.54859 4.7408,2.00007 6.76956,3.23383 l 0.36065,0.21933 -0.82901,0.25216 c -9.66115,2.3376 -20.21211,5.0782 -28.71549,23.29496 -8.50339,18.21677 -13.16368,47.66393 -51.14883,44.98932 z"
       id="path101"
       transform="matrix(0.26458333,0,0,0.26458333,53.729703,56.824671)" /><path
       style="display:inline;opacity:1;fill:#921417;fill-opacity:1;stroke:#921417;stroke-width:0.888189;stroke-linejoin:round;stroke-dasharray:none;stroke-opacity:1;paint-order:markers fill stroke"
       d="m 191.36077,373.15872 c -4.8234,-0.5782 -8.68712,-1.82543 -13.3549,-4.31102 -2.37021,-1.26214 -3.29076,-1.80426 -8.97156,-5.2834 -9.26043,-5.67145 -14.0597,-8.139 -20.28623,-10.43019 -13.31986,-4.90134 -29.95425,-5.32176 -50.018296,-1.26417 -9.409735,1.90295 -17.116681,4.0212 -35.178562,9.66882 -17.463742,5.46059 -22.903544,6.9866 -27.26081,7.64738 -7.784563,1.18053 -13.822726,0.29411 -18.423066,-2.70454 -1.504371,-0.9806 -3.346148,-2.66668 -4.151268,-3.80034 -0.378865,-0.53347 -1.289715,-0.6239 -1.289715,-0.6239 0,0 13.520888,2.78497 19.871995,2.32448 13.777638,-0.99897 28.573954,-7.76099 48.04665,-14.09555 17.709097,-5.76085 34.244712,-8.37101 52.163922,-5.57139 11.61651,1.95675 22.67008,5.0423 34.63947,11.37256 29.30616,17.05343 28.93811,12.0459 69.02527,-6.6935 28.38968,-13.27123 79.12173,3.36883 107.39184,12.29311 20.9093,6.60063 32.98116,0.667 32.98116,0.667 0,0 -7.15605,7.82362 -10.30045,7.9741 -7.06719,0.33822 -17.05163,-1.44638 -35.23186,-6.70367 -15.74304,-4.55252 -18.18095,-5.24398 -21.38998,-6.06677 -6.74069,-1.7283 -15.55477,-3.52111 -24.48357,-4.98002 -19.64198,-3.20939 -31.65091,-3.28138 -42.19685,-0.25296 -6.0649,1.74163 -10.91249,4.19757 -22.50342,11.40095 -7.60665,4.72727 -15.64905,8.04887 -22.01116,9.09083 -1.68454,0.27589 -5.91376,0.48062 -7.06861,0.34219 z"
       id="path102"
       transform="matrix(0.26458333,0,0,0.26458333,53.729703,56.824671)" /><path
       style="display:inline;fill:none;stroke:#00283b;stroke-width:2.265;stroke-linejoin:round;stroke-opacity:1;paint-order:markers fill stroke"
       d="m 147.67022,101.53499 c 5.93121,-0.47172 5.31336,2.06795 5.34447,3.11762 0.092,3.1045 1.74692,39.09746 1.85939,42.78659 0.48346,13.74621 -11.62346,6.65167 -21.82191,4.56577 -13.05849,-2.67086 -15.11993,-1.27863 -20.60314,2.18265 -10.97221,6.48819 -12.730353,-1.23815 -21.59601,-3.40225 -8.350679,-1.76289 -17.233997,2.17998 -25.372964,4.437 -10.707488,2.9693 -10.617508,-6.47848 -10.617508,-6.47848 0,0 1.979535,-37.88111 2.159493,-43.18986 0.179958,-5.30876 5.488712,-3.77912 5.488712,-3.77912 l -2.069515,48.85854 c 29.171527,-12.67723 39.103997,0.20928 44.728342,0.48299 6.02407,0.29315 12.45462,-12.6791 44.2185,-0.0178 -0.509,-16.52122 -1.27859,-33.06723 -1.91669,-49.5239 z"
       id="path103" /><path
       style="display:inline;fill:none;stroke:#00283b;stroke-width:2.265;stroke-linejoin:round;stroke-opacity:1;paint-order:markers fill stroke"
       d="m 62.529151,101.6661 0.190874,-4.835468 c 0,0 14.251928,-7.444087 29.203728,-4.644602 0,0 -2.03599,11.77056 -7.76221,12.00916 -4.822893,0.009 -7.968992,-5.28085 -7.968992,-5.28085 0,0 -5.614877,13.02715 13.090778,14.74502 4.8991,0.19087 20.741651,0.95437 21.696011,-18.514782 l 5.18541,-3.658419 c 0,0 20.48715,-2.226863 31.04885,5.98072 l 0.25905,4.116011"
       id="path104" /><path
       style="display:inline;fill:none;stroke:#00283b;stroke-width:2.265;stroke-linejoin:round;stroke-opacity:1;paint-order:markers fill stroke"
       d="m 106.50505,82.002221 c 0,0 8.01671,3.244861 9.92545,9.35283"
       id="path105" /><path
       style="display:inline;fill:none;stroke:#00283b;stroke-width:2.265;stroke-linejoin:round;stroke-opacity:1;paint-order:markers fill stroke"
       d="m 91.855468,92.500294 c 0,0 1.292261,-7.802678 10.772332,-4.748693 2.31696,0.888541 6.48586,3.730699 8.52185,7.54818 28.02159,-21.503743 29.87983,-36.124583 21.51852,-37.291606 -4.29153,-0.598986 -13.50334,2.918353 -29.9806,29.656644"
       id="path106" /></g></svg>
